<svg width="20" height="20" viewBox="0 0 20 20" fill="none" xmlns="http://www.w3.org/2000/svg">
<path fill-rule="evenodd" clip-rule="evenodd" d="M0.833313 10C0.833313 15.0626 4.93737 19.1667 9.99998 19.1667C15.0626 19.1667 19.1666 15.0626 19.1666 10C19.1666 4.93743 15.0626 0.833374 9.99998 0.833374C4.93737 0.833374 0.833313 4.93743 0.833313 10ZM17.5 10C17.5 14.1422 14.1421 17.5 9.99998 17.5C5.85784 17.5 2.49998 14.1422 2.49998 10C2.49998 5.8579 5.85784 2.50004 9.99998 2.50004C14.1421 2.50004 17.5 5.8579 17.5 10ZM9.16665 13.3334C9.16665 13.7936 9.53974 14.1667 9.99998 14.1667C10.4602 14.1667 10.8333 13.7936 10.8333 13.3334V10.8334H13.3333C13.7935 10.8334 14.1666 10.4603 14.1666 10C14.1666 9.5398 13.7935 9.16671 13.3333 9.16671H10.8333V6.66671C10.8333 6.20647 10.4602 5.83337 9.99998 5.83337C9.53974 5.83337 9.16665 6.20647 9.16665 6.66671V9.16671H6.66665C6.20641 9.16671 5.83331 9.5398 5.83331 10C5.83331 10.4603 6.20641 10.8334 6.66665 10.8334H9.16665V13.3334Z" fill="black"/>
</svg>
