<svg width="18" height="20" viewBox="0 0 18 20" fill="none" xmlns="http://www.w3.org/2000/svg">
<path fill-rule="evenodd" clip-rule="evenodd" d="M11.5 2.49998V1.66665C11.5 1.20641 11.8731 0.833313 12.3333 0.833313C12.7936 0.833313 13.1667 1.20641 13.1667 1.66665V2.49998H14.8333C16.214 2.49998 17.3333 3.61927 17.3333 4.99998V8.33331V16.6666C17.3333 18.0474 16.214 19.1666 14.8333 19.1666H3.16666C1.78595 19.1666 0.666664 18.0474 0.666664 16.6666V8.33331V4.99998C0.666664 3.61927 1.78595 2.49998 3.16666 2.49998H4.83333V1.66665C4.83333 1.20641 5.20643 0.833313 5.66666 0.833313C6.1269 0.833313 6.5 1.20641 6.5 1.66665V2.49998H11.5ZM2.33333 9.16665V16.6666C2.33333 17.1269 2.70643 17.5 3.16666 17.5H14.8333C15.2936 17.5 15.6667 17.1269 15.6667 16.6666V9.16665H2.33333ZM15.6667 7.49998H2.33333V4.99998C2.33333 4.53974 2.70643 4.16665 3.16666 4.16665H4.83333V4.99998C4.83333 5.46022 5.20643 5.83331 5.66666 5.83331C6.1269 5.83331 6.5 5.46022 6.5 4.99998V4.16665H11.5V4.99998C11.5 5.46022 11.8731 5.83331 12.3333 5.83331C12.7936 5.83331 13.1667 5.46022 13.1667 4.99998V4.16665H14.8333C15.2936 4.16665 15.6667 4.53974 15.6667 4.99998V7.49998Z" fill="black"/>
</svg>
