<svg width="21" height="18" viewBox="0 0 21 18" fill="none" xmlns="http://www.w3.org/2000/svg">
<path fill-rule="evenodd" clip-rule="evenodd" d="M0.849451 4.70003C2.2856 1.94496 5.27175 0.360598 8.35827 0.716096C11.2265 1.04645 13.6295 2.98846 14.5748 5.67655H15.0069C17.188 5.67484 19.1186 7.08714 19.7773 9.16637C20.4361 11.2456 19.6711 13.5119 17.8869 14.7665C17.5105 15.0313 16.9906 14.9407 16.7259 14.5642C16.4612 14.1878 16.5518 13.668 16.9282 13.4032C18.1177 12.5668 18.6277 11.0559 18.1885 9.66976C17.7493 8.28361 16.4623 7.34208 15.0076 7.34321H13.9576C13.5771 7.34321 13.245 7.08553 13.1504 6.717C12.5498 4.37633 10.5682 2.64831 8.16756 2.37182C5.76694 2.09532 3.44438 3.3276 2.32737 5.47043C1.21037 7.61327 1.53022 10.223 3.13165 12.0326C3.43665 12.3773 3.4045 12.9039 3.05984 13.2089C2.71517 13.5139 2.18852 13.4818 1.88351 13.1371C-0.175462 10.8104 -0.586695 7.45511 0.849451 4.70003ZM9.17425 9.00991V14.4981L7.2635 12.5873C6.93807 12.2619 6.41043 12.2619 6.08499 12.5873C5.75955 12.9128 5.75955 13.4404 6.08499 13.7658L9.41741 17.0983L9.42595 17.1067C9.57441 17.2514 9.77667 17.3412 9.99989 17.3432L10.0076 17.3432C10.022 17.3432 10.0363 17.3429 10.0505 17.3422C10.1478 17.3372 10.2408 17.3156 10.3266 17.28C10.4233 17.24 10.5141 17.1809 10.5931 17.1029L9.17425 14.4981L10.5968 17.0992L10.5973 17.0987L13.9302 13.7658C14.2556 13.4404 14.2556 12.9128 13.9302 12.5873C13.6047 12.2619 13.0771 12.2619 12.7517 12.5873L10.8409 14.4981V9.00991C10.8409 8.54968 10.4678 8.17658 10.0076 8.17658C9.54734 8.17658 9.17425 8.54968 9.17425 9.00991Z" fill="black"/>
</svg>
