<svg width="20" height="20" viewBox="0 0 20 20" fill="none" xmlns="http://www.w3.org/2000/svg">
<path fill-rule="evenodd" clip-rule="evenodd" d="M9.99998 19.1667C4.93737 19.1667 0.833313 15.0626 0.833313 10C0.833313 4.93743 4.93737 0.833374 9.99998 0.833374C15.0626 0.833374 19.1666 4.93743 19.1666 10C19.1666 15.0626 15.0626 19.1667 9.99998 19.1667ZM9.99998 17.5C11.7708 17.5 13.3983 16.8863 14.6814 15.86L12.2978 13.4764C11.6391 13.9126 10.8492 14.1667 9.99998 14.1667C9.15074 14.1667 8.36084 13.9126 7.70215 13.4764L5.31857 15.86C6.60163 16.8863 8.22913 17.5 9.99998 17.5ZM4.14006 14.6814L6.52364 12.2979C6.08738 11.6392 5.83331 10.8493 5.83331 10C5.83331 9.1508 6.08738 8.36089 6.52365 7.7022L4.14008 5.31862C3.11371 6.60168 2.49998 8.22919 2.49998 10C2.49998 11.7709 3.1137 13.3984 4.14006 14.6814ZM17.5 10C17.5 11.7709 16.8863 13.3984 15.8599 14.6814L13.4763 12.2979C13.9126 11.6392 14.1666 10.8493 14.1666 10C14.1666 9.1508 13.9126 8.36089 13.4763 7.7022L15.8599 5.31862C16.8862 6.60168 17.5 8.22919 17.5 10ZM12.2978 6.52369L14.6814 4.14011C13.3983 3.11376 11.7708 2.50004 9.99998 2.50004C8.22914 2.50004 6.60165 3.11376 5.31859 4.14011L7.70217 6.52369C8.36086 6.08743 9.15075 5.83337 9.99998 5.83337C10.8492 5.83337 11.6391 6.08743 12.2978 6.52369ZM9.99998 12.5C11.3807 12.5 12.5 11.3808 12.5 10C12.5 8.61933 11.3807 7.50004 9.99998 7.50004C8.61927 7.50004 7.49998 8.61933 7.49998 10C7.49998 11.3808 8.61927 12.5 9.99998 12.5Z" fill="black"/>
</svg>
