<svg width="18" height="20" viewBox="0 0 18 20" fill="none" xmlns="http://www.w3.org/2000/svg">
<path fill-rule="evenodd" clip-rule="evenodd" d="M7.33335 17.5H3.16669C2.70645 17.5 2.33335 17.1269 2.33335 16.6667V3.33337C2.33335 2.87314 2.70645 2.50004 3.16669 2.50004H7.33335C7.79359 2.50004 8.16669 2.12694 8.16669 1.66671C8.16669 1.20647 7.79359 0.833374 7.33335 0.833374H3.16669C1.78598 0.833374 0.666687 1.95266 0.666687 3.33337V16.6667C0.666687 18.0474 1.78598 19.1667 3.16669 19.1667H7.33335C7.79359 19.1667 8.16669 18.7936 8.16669 18.3334C8.16669 17.8731 7.79359 17.5 7.33335 17.5ZM12.5774 12.7441C12.252 13.0696 12.252 13.5972 12.5774 13.9226C12.9029 14.2481 13.4305 14.2481 13.7559 13.9226L17.0878 10.5907C17.0926 10.586 17.0973 10.5812 17.1019 10.5764C17.2453 10.4267 17.3334 10.2237 17.3334 10C17.3334 9.88615 17.3105 9.7776 17.2691 9.67871C17.2294 9.58353 17.1713 9.49423 17.0947 9.41625C17.0927 9.41424 17.0907 9.41225 17.0888 9.41026L13.7559 6.07745C13.4305 5.75201 12.9029 5.75201 12.5774 6.07745C12.252 6.40289 12.252 6.93053 12.5774 7.25596L14.4882 9.16671H6.50002C6.03978 9.16671 5.66669 9.5398 5.66669 10C5.66669 10.4603 6.03978 10.8334 6.50002 10.8334H14.4882L12.5774 12.7441Z" fill="black"/>
</svg>
