<svg width="20" height="20" viewBox="0 0 20 20" fill="none" xmlns="http://www.w3.org/2000/svg">
<path fill-rule="evenodd" clip-rule="evenodd" d="M1.66668 15C0.555566 15 0.555566 13.3334 1.66668 13.3334C2.58715 13.3334 3.33334 12.5872 3.33334 11.6667V7.50004C3.33334 3.81814 6.31811 0.833374 10 0.833374C13.6819 0.833374 16.6667 3.81814 16.6667 7.50004V11.6667C16.6667 12.5872 17.4129 13.3334 18.3333 13.3334C19.4445 13.3334 19.4445 15 18.3333 15H1.66668ZM15 11.6667V7.50004C15 4.73862 12.7614 2.50004 10 2.50004C7.23859 2.50004 5.00002 4.73862 5.00001 7.50004V11.6667C5.00001 12.2739 4.83769 12.8431 4.55407 13.3334H15.446C15.1623 12.8431 15 12.2739 15 11.6667ZM10 19.1638C10.8913 19.1638 11.7153 18.6892 12.1625 17.9182C12.4848 17.3626 12.0839 16.6667 11.4417 16.6667H8.55834C7.91609 16.6667 7.51524 17.3626 7.83751 17.9182C8.28476 18.6892 9.10868 19.1638 10 19.1638Z" fill="black"/>
</svg>
