<svg width="20" height="20" viewBox="0 0 20 20" fill="none" xmlns="http://www.w3.org/2000/svg">
<path fill-rule="evenodd" clip-rule="evenodd" d="M10.3728 0.921351C10.1382 0.804048 9.86209 0.804048 9.62748 0.921351L1.29415 5.08802C0.679939 5.39512 0.679939 6.27163 1.29415 6.57873L9.62748 10.7454C9.86209 10.8627 10.1382 10.8627 10.3728 10.7454L18.7062 6.57873C19.3204 6.27163 19.3204 5.39512 18.7062 5.08802L10.3728 0.921351ZM3.53021 5.83335L10.0002 2.59838L16.4701 5.83335L10.0002 9.06832L3.53021 5.83335ZM2.03951 13.4213C1.62786 13.2155 1.1273 13.3823 0.921473 13.794C0.715649 14.2056 0.882502 14.7062 1.29415 14.912L9.62748 19.0787C9.86209 19.196 10.1382 19.196 10.3728 19.0787L18.7062 14.912C19.1178 14.7062 19.2847 14.2056 19.0788 13.794C18.873 13.3823 18.3725 13.2155 17.9608 13.4213L10.0002 17.4016L2.03951 13.4213ZM0.921473 9.62733C1.1273 9.21568 1.62786 9.04882 2.03951 9.25465L10.0002 13.235L17.9608 9.25465C18.3725 9.04882 18.873 9.21568 19.0788 9.62733C19.2847 10.039 19.1178 10.5395 18.7062 10.7454L10.3728 14.912C10.1382 15.0293 9.86209 15.0293 9.62748 14.912L1.29415 10.7454C0.882502 10.5395 0.715649 10.039 0.921473 9.62733Z" fill="black"/>
</svg>
