<svg width="18" height="18" viewBox="0 0 18 18" fill="none" xmlns="http://www.w3.org/2000/svg">
<path fill-rule="evenodd" clip-rule="evenodd" d="M7.74999 14.8333C3.83797 14.8333 0.666656 11.662 0.666656 7.74996C0.666656 3.83794 3.83797 0.666626 7.74999 0.666626C11.662 0.666626 14.8333 3.83794 14.8333 7.74996C14.8333 9.40569 14.2652 10.9287 13.3133 12.1348L17.0892 15.9107C17.4147 16.2362 17.4147 16.7638 17.0892 17.0892C16.7638 17.4147 16.2362 17.4147 15.9107 17.0892L12.1348 13.3133C10.9287 14.2652 9.40571 14.8333 7.74999 14.8333ZM11.5266 11.6329C10.5509 12.5821 9.21871 13.1666 7.74999 13.1666C4.75845 13.1666 2.33332 10.7415 2.33332 7.74996C2.33332 4.75842 4.75845 2.33329 7.74999 2.33329C10.7415 2.33329 13.1667 4.75842 13.1667 7.74996C13.1667 9.2187 12.5821 10.5509 11.6329 11.5266C11.6139 11.5426 11.5953 11.5595 11.5774 11.5774C11.5595 11.5953 11.5426 11.6139 11.5266 11.6329Z" fill="black"/>
</svg>
